
      <svg data-logo="logo" xmlns="http://www.w3.org/2000/svg" viewBox="0 0 212 43">
        <g id="logogram" transform="translate(0, 1) rotate(0) "><path d="M20.3018 10.27C20.3018 15.7928 15.8246 20.27 10.3018 20.27H0.301758V10.27C0.301758 4.74714 4.7789 0.269989 10.3018 0.269989C15.8246 0.269989 20.3018 4.74714 20.3018 10.27Z" fill="#016630"/><path d="M20.3018 30.27C20.3018 24.7471 24.7789 20.27 30.3018 20.27H40.3018V30.27C40.3018 35.7928 35.8246 40.27 30.3018 40.27C24.7789 40.27 20.3018 35.7928 20.3018 30.27Z" fill="#016630"/><path d="M0.301758 30.27C0.301758 35.7928 4.7789 40.27 10.3018 40.27H20.3018V30.27C20.3018 24.7471 15.8246 20.27 10.3018 20.27C4.7789 20.27 0.301758 24.7471 0.301758 30.27Z" fill="#016630"/><path d="M40.3018 10.27C40.3018 4.74714 35.8246 0.269989 30.3018 0.269989H20.3018V10.27C20.3018 15.7928 24.7789 20.27 30.3018 20.27C35.8246 20.27 40.3018 15.7928 40.3018 10.27Z" fill="#016630"/></g>
        <g id="logotype" transform="translate(47, 6.5)"><path fill="#016630" d="M7.38 27.90L10.13 27.55L10.13 6.64L7.52 6.18L7.52 3.99L12.81 3.99Q13.70 3.99 14.53 3.94Q15.36 3.89 16.36 3.83Q17.36 3.77 18.76 3.78L18.76 3.78Q22.49 3.78 24.58 4.69Q26.67 5.59 27.53 7.29Q28.38 9.00 28.38 11.47L28.38 11.47Q28.38 14.39 27.15 16.47Q25.92 18.55 23.60 19.67Q21.28 20.78 18.06 20.78L18.06 20.78Q17.53 20.78 16.94 20.76Q16.34 20.74 15.91 20.72Q15.47 20.69 15.31 20.67L15.31 20.67L15.31 27.53L19.98 27.90L19.98 30L7.38 30L7.38 27.90ZM15.29 6.15L15.29 18.43Q15.64 18.50 16.33 18.55Q17.01 18.59 17.99 18.59L17.99 18.59Q19.39 18.59 20.53 17.95Q21.68 17.31 22.37 15.78Q23.06 14.25 23.06 11.55L23.06 11.55Q23.06 9.56 22.51 8.33Q21.96 7.09 20.83 6.51Q19.70 5.94 17.97 5.94L17.97 5.94Q17.29 5.94 16.82 5.98Q16.34 6.02 15.98 6.07Q15.63 6.11 15.29 6.15L15.29 6.15ZM29.94 27.90L32.39 27.59L32.39 4.41L29.80 3.98L29.80 2.09L36.29 1.32L36.36 1.32L37.31 1.98L37.31 27.60L39.86 27.90L39.86 30L29.94 30L29.94 27.90ZM47.14 30.39L47.14 30.39Q45.57 30.39 44.22 29.72Q42.87 29.05 42.06 27.74Q41.25 26.43 41.25 24.52L41.25 24.52Q41.25 22.88 42.14 21.66Q43.03 20.45 44.61 19.67Q46.18 18.89 48.25 18.49Q50.33 18.10 52.71 18.08L52.71 18.08L52.71 17.19Q52.71 15.84 52.43 15.03Q52.15 14.21 51.36 13.84Q50.57 13.46 49.07 13.46L49.07 13.46Q47.04 13.46 45.53 14.04Q44.03 14.62 43.19 15.04L43.19 15.04L42.07 12.76Q42.49 12.41 43.69 11.78Q44.89 11.15 46.61 10.64Q48.33 10.12 50.35 10.12L50.35 10.12Q53.02 10.12 54.55 10.88Q56.09 11.64 56.74 13.21Q57.40 14.77 57.40 17.19L57.40 17.19L57.40 27.85L59.31 27.85L59.31 29.81Q58.90 29.91 58.15 30.04Q57.40 30.16 56.55 30.25Q55.70 30.33 55.00 30.33L55.00 30.33Q53.81 30.33 53.40 29.98Q52.99 29.63 52.99 28.57L52.99 28.57L52.99 27.64Q52.55 28.14 51.73 28.80Q50.91 29.46 49.75 29.92Q48.60 30.39 47.14 30.39ZM49.42 27.48L49.42 27.48Q50.17 27.48 51.10 27.04Q52.03 26.61 52.71 25.98L52.71 25.98L52.71 20.23Q50.52 20.23 49.15 20.76Q47.77 21.28 47.13 22.14Q46.50 23 46.50 24.03L46.50 24.03Q46.50 25.17 46.87 25.94Q47.25 26.71 47.90 27.09Q48.56 27.48 49.42 27.48ZM61.51 27.90L63.54 27.59L63.54 13.88L61.32 13.23L61.32 10.80L67.16 10.10L67.27 10.10L68.13 10.78L68.13 12.13L68.09 12.97Q68.83 12.29 69.95 11.64Q71.08 10.99 72.44 10.57Q73.80 10.14 75.23 10.14L75.23 10.14Q77.35 10.14 78.63 10.91Q79.92 11.68 80.50 13.38Q81.08 15.07 81.08 17.84L81.08 17.84L81.08 27.60L83.21 27.88L83.21 30L74.15 30L74.15 27.90L76.02 27.60L76.02 17.94Q76.02 16.21 75.73 15.16Q75.44 14.11 74.74 13.62Q74.04 13.13 72.82 13.13L72.82 13.13Q71.99 13.13 71.21 13.41Q70.42 13.69 69.74 14.09Q69.07 14.49 68.58 14.86L68.58 14.86L68.58 27.59L70.68 27.90L70.68 30L61.51 30L61.51 27.90ZM90.91 30.33L90.91 30.33Q88.76 30.33 87.68 29.33Q86.61 28.32 86.61 26.08L86.61 26.08L86.61 13.27L84.33 13.27L84.33 11.29Q84.73 11.13 85.16 11.01Q85.59 10.89 85.95 10.76Q86.31 10.63 86.52 10.45L86.52 10.45Q86.75 10.22 86.91 10.01Q87.08 9.80 87.22 9.52Q87.36 9.23 87.50 8.84L87.50 8.84Q87.69 8.39 87.88 7.77Q88.08 7.16 88.26 6.52Q88.44 5.88 88.58 5.38L88.58 5.38L91.44 5.38L91.59 10.56L96.77 10.56L96.77 13.27L91.63 13.27L91.63 23.07Q91.63 24.93 91.76 25.77Q91.89 26.62 92.30 26.84Q92.71 27.06 93.50 27.06L93.50 27.06Q94.38 27.06 95.29 26.86Q96.21 26.66 96.77 26.43L96.77 26.43L97.44 28.39Q96.84 28.86 95.81 29.30Q94.78 29.74 93.50 30.04Q92.22 30.33 90.91 30.33ZM118.58 30L99.26 30L99.26 27.90L102.01 27.55L102.01 6.64L99.31 6.18L99.31 3.99L110.55 3.99L110.55 6.18L107.19 6.64L107.19 27.52L114.61 27.18L117.07 20.64L119.66 21.02L118.58 30ZM131.27 30L121.47 30L121.47 27.90L123.90 27.59L123.90 13.88L121.43 13.22L121.43 10.87L127.85 10.10L127.92 10.10L128.90 10.78L128.90 27.60L131.27 27.90L131.27 30ZM126.02 7.37L125.98 7.37Q124.65 7.37 123.95 6.55Q123.25 5.73 123.25 4.69L123.25 4.69Q123.25 3.45 124.01 2.54Q124.77 1.63 126.28 1.63L126.28 1.63L126.31 1.63Q127.64 1.63 128.34 2.43Q129.04 3.22 129.04 4.24L129.04 4.24Q129.04 5.48 128.28 6.43Q127.52 7.37 126.02 7.37L126.02 7.37ZM144.72 30L133.33 30L133.33 27.90L136.11 27.59L136.11 13.27L133.17 13.27L133.16 11.31L136.11 10.61L136.11 9.03Q136.11 7.28 136.81 5.79Q137.51 4.29 138.74 3.16Q139.96 2.03 141.55 1.40Q143.13 0.77 144.86 0.77L144.86 0.77Q145.81 0.77 146.34 0.89Q146.88 1.00 147.12 1.09L147.12 1.09L147.10 5.34Q146.65 4.99 145.76 4.77Q144.86 4.55 143.81 4.57L143.81 4.57Q142.82 4.55 142.21 4.84Q141.61 5.13 141.33 5.78Q141.05 6.43 141.05 7.51L141.05 7.51L141.05 10.56L145.49 10.56L145.49 13.27L141.05 13.27L141.05 27.62L144.72 27.90L144.72 30ZM156.31 30.39L156.31 30.39Q153.12 30.39 151.10 29.09Q149.08 27.80 148.13 25.50Q147.17 23.21 147.17 20.25L147.17 20.25Q147.17 17.87 147.86 15.98Q148.54 14.09 149.78 12.77Q151.02 11.45 152.76 10.75Q154.49 10.05 156.59 10.05L156.59 10.05Q160.14 10.05 162.01 11.90Q163.89 13.76 163.97 17.10L163.97 17.10Q163.97 18.24 163.90 19.09Q163.83 19.94 163.69 20.57L163.69 20.57L152.34 20.57Q152.39 22.14 152.76 23.38Q153.14 24.61 153.81 25.48Q154.49 26.36 155.46 26.81Q156.43 27.27 157.71 27.27L157.71 27.27Q159.14 27.27 160.59 26.77Q162.03 26.27 162.82 25.73L162.82 25.73L163.69 27.64Q163.13 28.23 162.00 28.87Q160.86 29.51 159.38 29.95Q157.90 30.39 156.31 30.39ZM152.32 18.43L152.32 18.43L159.04 18.43Q159.06 18.08 159.08 17.70Q159.11 17.31 159.11 16.95L159.11 16.95Q159.11 14.86 158.43 13.58Q157.74 12.31 156.03 12.31L156.03 12.31Q155.26 12.31 154.61 12.59Q153.96 12.87 153.46 13.54Q152.97 14.21 152.67 15.40Q152.37 16.59 152.32 18.43Z"/></g>
        
      </svg>
    